<?xml version="1.0" encoding="utf-8"?>
<!-- Generator: Adobe Illustrator 28.2.0, SVG Export Plug-In . SVG Version: 6.00 Build 0)  -->
<svg version="1.1" id="screenshot-83c1d2d8-82b2-8079-8006-179d849286db"
	 xmlns="http://www.w3.org/2000/svg" xmlns:xlink="http://www.w3.org/1999/xlink" x="0px" y="0px" viewBox="0 0 570.4 352.6"
	 style="enable-background:new 0 0 570.4 352.6;" xml:space="preserve">
<style type="text/css">
	.st0{display:none;}
	.st1{display:inline;}
	.st2{fill:#FFFFFF;}
</style>
<g id="shape-83c1d2d8-82b2-8079-8006-179d849286db">
	<g id="shape-83c1d2d8-82b2-8079-8006-179d849545dd" class="st0">
		<g id="fills-83c1d2d8-82b2-8079-8006-179d849545dd" class="st1">
			<rect y="0" class="st2" width="570.4" height="352.6"/>
		</g>
	</g>
	<g id="shape-83c1d2d8-82b2-8079-8006-179d84960045">
	</g>
	<g id="shape-83c1d2d8-82b2-8079-8006-179d849731a1">
		<g id="fills-83c1d2d8-82b2-8079-8006-179d849731a1">
			<path class="st2" d="M46.5,274.9c-21.9,0-36.2-9.3-46.5-24.2l3.7-5.3c5.3,6.3,13.6,12,20.3,12c7.6,0,13.6-6.7,17.6-19.9
				c9-29.2,27.6-93,42.2-164.1L52.2,47.6l1-5.6c32.2,1.3,78.1,1.7,108,1.7c40.2,0,71.4-0.7,87.7-0.7c10,0,14.6,4,14.6,10.6
				c0,13-26.9,47.8-44.5,74.1h-7c-2-23.6-4.6-42.5-8.6-55.5c-3.3-12.3-9.3-21.6-26.2-21.6h-18.9c-5.3,33.6-14.9,76.4-24.6,113.6h7.6
				c15.3,0,45.5-11.6,67.4-28.2l3,1.3c-3,18.3-10,40.9-18.3,58.8l-3,1c-11.3-14.6-34.9-26.6-48.5-26.6h-10
				c-5.7,21.6-11.3,41.2-15.9,55.5C104.7,260.9,82.4,274.9,46.5,274.9z"/>
		</g>
	</g>
	<g id="shape-83c1d2d8-82b2-8079-8006-179d849791c1">
		<g id="fills-83c1d2d8-82b2-8079-8006-179d849791c1">
			<path class="st2" d="M272.8,352.6c-30.9,0-64.8-10-68.4-39.9c10-19.6,33.9-41.5,53.5-50.2c-15.9-5-23.9-18.3-23.9-34.9
				c0-12,8.6-31.2,17.6-50.8c8.6-19.9,17.3-40.2,17.3-53.8c0-5-2-6.3-5-6.3c-3.3,0-10.6,2-13.6,4l-1-0.7l1.3-7.6
				c10.3-7,29.2-14.3,47.5-14.3c25.2,0,36.5,12.6,36.5,34.2c0,12-7.6,32.2-14.9,51.5c-7.6,18.9-15,36.6-15,44.2c0,6,3.3,8,7,8
				c5.3,0,13.3-8.6,23.3-25.2c13.3-22.9,29.9-60.1,46.5-109.3c20.3,3.3,50.5,14.6,62.1,29.6c-4,10-32.9,101-46.9,134.6
				C375.4,317.4,325.9,352.6,272.8,352.6z M302.7,340.4c9,0,18.9-26.6,29.2-59.1c10-32.2,20.3-70.1,30.2-94l-6.6,1.3
				c-4.6,9.3-9.6,18.3-15,26.9c-16.9,27.2-38.2,49.5-66.8,49.5c-3.3,0-6.3-0.3-9.3-0.7c-1.7,6.3-2.7,13-2.7,19.6
				C261.8,311.4,277.1,340.4,302.7,340.4z"/>
		</g>
	</g>
	<g id="shape-83c1d2d8-82b2-8079-8006-179d8497f91b">
		<g id="fills-83c1d2d8-82b2-8079-8006-179d8497f91b">
			<path class="st2" d="M495.2,44.4V8.9h-12.8V0h35.7v8.9h-12.8v35.5L495.2,44.4z"/>
		</g>
	</g>
	<g id="shape-83c1d2d8-82b2-8079-8006-179d84982d6e">
		<g id="fills-83c1d2d8-82b2-8079-8006-179d84982d6e">
			<path class="st2" d="M523.5,44.4V0h10.9l12.5,20.4h0.2L559.6,0h10.8v44.4h-9.6V15.7h-0.2L547.3,37h-0.6l-13.3-21.5h-0.2v28.9
				H523.5z"/>
		</g>
	</g>
</g>
</svg>
