<?xml version="1.0" encoding="utf-8"?>
<!-- Generator: Adobe Illustrator 28.2.0, SVG Export Plug-In . SVG Version: 6.00 Build 0)  -->
<svg version="1.1" id="screenshot-088ee182-ee23-8074-8006-17e99400113e"
	 xmlns="http://www.w3.org/2000/svg" xmlns:xlink="http://www.w3.org/1999/xlink" x="0px" y="0px" viewBox="0 0 148 50"
	 style="enable-background:new 0 0 148 50;" xml:space="preserve">
<style type="text/css">
	.st0{display:none;}
	.st1{display:inline;}
	.st2{fill:#FFFFFF;}
</style>
<g id="shape-088ee182-ee23-8074-8006-17e99400113e">
	<g id="shape-088ee182-ee23-8074-8006-17e99400114b" class="st0">
		<g id="fills-088ee182-ee23-8074-8006-17e99400114b" class="st1">
			<rect y="0" class="st2" width="148" height="50"/>
		</g>
	</g>
	<g id="shape-088ee182-ee23-8074-8006-17e99400114c">
	</g>
	<g id="shape-088ee182-ee23-8074-8006-17e99400114d">
		<g id="fills-088ee182-ee23-8074-8006-17e99400114d">
			<path class="st2" d="M6.1,37.4c-2.9,0-4.7-1.2-6.1-3.2l0.5-0.7c0.7,0.8,1.8,1.6,2.6,1.6c1,0,1.8-0.9,2.3-2.6
				c1.2-3.8,3.6-12.2,5.5-21.6L6.8,7.5l0.1-0.7C11.1,7,17.1,7,21,7c5.2,0,9.3-0.1,11.5-0.1c1.3,0,1.9,0.5,1.9,1.4
				c0,1.7-3.5,6.3-5.8,9.7h-0.9c-0.3-3.1-0.6-5.6-1.1-7.3c-0.4-1.6-1.2-2.8-3.4-2.8h-2.5c-0.7,4.4-2,10.1-3.2,14.9h1
				c2,0,5.9-1.5,8.8-3.7l0.4,0.2c-0.4,2.4-1.3,5.4-2.4,7.7l-0.4,0.1c-1.5-1.9-4.6-3.5-6.3-3.5h-1.3c-0.7,2.8-1.5,5.4-2.1,7.3
				C13.7,35.6,10.8,37.4,6.1,37.4z"/>
		</g>
	</g>
	<g id="shape-088ee182-ee23-8074-8006-17e99400114e">
		<g id="fills-088ee182-ee23-8074-8006-17e99400114e">
			<path class="st2" d="M53.1,25.5c-2.1,5.8-8.4,11.9-16.2,11.9c-4.9,0-7.8-3.2-7.8-7.3c0-4.4,2.6-7.9,5.4-9.4c1,1.1,3,3.5,4.1,4.9
				c-0.2,1.3-0.3,2.4-0.3,3.7c0,2.8,0.2,6.2,2.5,6.2c2.7,0,3.5-4.6,3.9-8.2C48.2,27,50.9,26.4,53.1,25.5z M44.2,26.5
				c-3.8,0-6.6-1.7-6.6-5.5c0-4.9,3.1-8.7,7.8-8.7c4.6,0,8.1,3.6,8.1,9.8c0,0.6,0,1.1-0.1,1.6c2.5-1,4.9-2.3,6.9-3.8l0.2,0.1v1
				C55.8,24.3,49.3,26.5,44.2,26.5z M44.7,25.6h0.1V24c0-5.3-0.9-9.3-2.6-9.3c-1.5,0-3.3,2.5-3.3,5.7C39,23.5,40.5,25.6,44.7,25.6z"
				/>
		</g>
	</g>
	<g id="shape-088ee182-ee23-8074-8006-17e99400114f">
		<g id="fills-088ee182-ee23-8074-8006-17e99400114f">
			<path class="st2" d="M75.1,37.4c-3.3,0-4.8-1.7-4.8-4.5c0-1.6,1-4.6,2.1-7.5c1-2.8,2-5.3,2-6.3c0-0.8-0.4-1-0.9-1
				c-0.8,0-2.4,1.8-3.9,4.2c-2.3,3.8-4.7,8.4-7.6,15.3c-2.3,0-6.7-0.9-8.4-1.9c1.6-4.1,4.6-13.3,5.2-17.6l-1.6-2.4l0.1-0.7
				c2.6-0.4,7.8-0.7,10.4-0.7l0.6,0.4c0,4.5-2.2,9.5-4.4,13.9l0.6,0.4c1.2-2.4,2.6-5.4,4.3-7.8c2.6-3.9,5.8-7,9.6-7
				c3.4,0,5.2,2.1,5.2,4.9c0,1.5-1.3,4.8-2.5,7.9c-1.3,3.1-2.5,6.3-2.5,7.6c0,0.2,0,0.5,0.1,0.7c3.6-1.5,5.9-3.5,7.5-5.1l0.1,0.1
				v1.1C84.3,33.7,78.7,37.4,75.1,37.4z"/>
		</g>
	</g>
	<g id="shape-088ee182-ee23-8074-8006-17e994001150">
		<g id="fills-088ee182-ee23-8074-8006-17e994001150">
			<path class="st2" d="M91.1,37.4c-3.1,0-5.4-1.6-5.4-4.9c0-2.8,1.6-9,2.9-13.9c0-0.2,0.3-1,0.3-1.1h-2.2l0.4-1h2.1
				c4.8-1.5,9.5-6.1,10.4-10.3l1.2,0.6c-0.5,2.8-1.4,6.6-2.3,9.7h4.4l-0.4,1h-4.3c0,0.1-0.3,0.8-0.3,1c-1.6,5.3-3.7,13.5-3.7,16.1
				c0,0.4,0,0.7,0.1,0.8c2.9-0.7,8-4.5,9.6-6.3l0.1,0.1v1C101.9,32.7,95.6,37.4,91.1,37.4z"/>
		</g>
	</g>
	<g id="shape-088ee182-ee23-8074-8006-17e994001151">
		<g id="fills-088ee182-ee23-8074-8006-17e994001151">
			<path class="st2" d="M108.8,47.6c-2.7,0-5.2-1.2-5.2-3.5c0-4,5.7-5.8,10.2-8.5c0.3-0.2,1.6-1,2-1.2c0.6-3,1.5-6.5,2.3-8.6l-1,0.2
				c-0.1,0.2-0.7,1.4-0.8,1.6c-2.3,4.5-5.5,8.4-9.8,8.4c-3.4,0-5.2-2.1-5.2-4.9c0-1.6,1.2-4.1,2.3-6.7c1.1-2.6,2.3-5.2,2.3-7
				c0-0.7-0.3-0.8-0.7-0.8c-0.4,0-1,0.3-1.3,0.5l-0.1-0.1l0.2-1c1.3-0.9,3.4-1.9,5.8-1.9c3.3,0,4.8,1.7,4.8,4.5c0,1.6-1,4.2-2,6.7
				c-1,2.5-2,4.9-2,5.9c0,0.8,0.4,1,0.9,1c1,0,2.7-2.4,4.6-6.2c1.5-3.1,3.1-7.1,4.6-11.5c2.6,0.4,6.6,2,8.1,3.9
				c-0.5,1.2-1.4,5-2.4,9c2.8-2.1,5-3.9,6.6-5.6h0.2v1.2c-2.6,2.9-7.1,6.1-13.8,10.3c-1.2,0.7-5.2,3.3-6.1,3.8
				c-1.8,1.1-2.4,2.9-2.4,5.5c0,2.3,0.6,3.3,1.3,3.3c1.3,0,2.2-3.6,3.4-9.4l10.3-6.6c-0.3,0.9-1.3,4.4-1.5,5.2
				C122.6,41.6,116.3,47.6,108.8,47.6z"/>
		</g>
	</g>
	<g id="shape-088ee182-ee23-8074-8006-17e994001152">
		<g id="fills-088ee182-ee23-8074-8006-17e994001152">
			<path class="st2" d="M137.6,7.1V2.4h-1.7V1.3h4.7v1.2h-1.7v4.7L137.6,7.1z"/>
		</g>
	</g>
	<g id="shape-088ee182-ee23-8074-8006-17e994001153">
		<g id="fills-088ee182-ee23-8074-8006-17e994001153">
			<path class="st2" d="M141.3,7.1V1.3h1.4l1.6,2.7h0l1.6-2.7h1.4v5.8h-1.3V3.3h0l-1.7,2.8h-0.1l-1.7-2.8h0v3.8L141.3,7.1z"/>
		</g>
	</g>
</g>
</svg>
