<?xml version="1.0" encoding="utf-8"?>
<!-- Generator: Adobe Illustrator 28.2.0, SVG Export Plug-In . SVG Version: 6.00 Build 0)  -->
<svg version="1.1" id="Layer_1" xmlns="http://www.w3.org/2000/svg" xmlns:xlink="http://www.w3.org/1999/xlink" x="0px" y="0px"
	 viewBox="0 0 1000.39 375.77" style="enable-background:new 0 0 1000.39 375.77;" xml:space="preserve">
<style type="text/css">
	.st0{fill:#DA1D3F;}
</style>
<g>
	<path class="st0" d="M142.62,88.45h-64.2c1.82-25.92,16.62-38.54,45.08-38.54h38.58V0H123.5c-58,0-92.91,32.09-96.93,88.45H0v47.44
		h26.18v147.89h52.04V135.89h64.39L142.62,88.45L142.62,88.45z"/>
	<path class="st0" d="M250.54,84.91c-61.17,0-102.26,40.67-102.26,101.2s41.1,101.2,102.26,101.2c61.17,0,102.27-40.67,102.27-101.2
		S311.71,84.91,250.54,84.91z M250.54,237.41c-30.51,0-50.23-20.13-50.23-51.29s19.71-51.29,50.23-51.29
		c30.51,0,50.23,20.13,50.23,51.29S281.06,237.41,250.54,237.41z"/>
	<path class="st0" d="M467.06,84.91c-59.9,0-100.14,39.53-100.14,98.37v100.5h52.04V180.46c0-27.29,18.76-45.62,46.69-45.62
		c28.79,0,47.4,17.91,47.4,45.62v103.33h52.39v-100.5C565.43,124.45,525.9,84.91,467.06,84.91z"/>
	<path class="st0" d="M631.58,51.66h-52.04v125.62c0,73.66,33.61,106.51,108.99,106.51h9.21v-50.62h-9.21
		c-43.64,0-56.95-11.9-56.95-50.93v-43.15h66.16v-48.5h-66.16L631.58,51.66L631.58,51.66z"/>
	<path class="st0" d="M865.56,88.45v98.02c0,31.89-18.64,50.93-49.87,50.93c-32.64,0-44.21-10.55-44.21-40.32V88.45h-52.04v105.8
		c0,62.62,29.4,93.07,89.88,93.07c23.32,0,43.36-6.68,56.24-17.46v13.9c0,30.99-14.7,44.21-49.17,44.21
		c-38.54,0-43.86-16.32-43.86-33.95v-9.21h-52.04v9.21c0,37.29,16.58,81.75,95.54,81.75c64.77,0,101.91-34.82,101.91-95.54V88.45
		H865.56z"/>
	<rect x="949.76" y="233.16" class="st0" width="50.62" height="50.62"/>
</g>
</svg>
