<svg version="1.2" xmlns="http://www.w3.org/2000/svg" viewBox="0 0 800 800" width="800" height="800">
	<title>user-a-solid</title>
	<style>
		.s0 { fill: #da1d3f } 
	</style>
	<g id="Layer 1">
		<path class="s0" d="m400 100c-82.8 0-150 67.2-150 150 0 82.8 67.2 150 150 150 82.8 0 150-67.2 150-150 0-82.8-67.2-150-150-150z"/>
		<path class="s0" d="m550 450h-300c-34.4 0-67.1 14.9-86.8 39-20.7 25.3-26.4 60.9-4.1 93.9 47.9 70.8 139.9 117.1 240.9 117.1 101 0 193-46.3 240.9-117.1 22.3-33 16.6-68.6-4.1-93.9-19.7-24.1-52.4-39-86.8-39z"/>
	</g>
</svg>